<svg width="86" height="24" viewBox="0 0 86 24" fill="none" xmlns="http://www.w3.org/2000/svg">
<g clip-path="url(#clip0_61_2338)">
<g clip-path="url(#clip1_61_2338)">
<path d="M25.4379 0C26.9786 0 28.2454 1.26676 28.2454 2.80742C28.2454 2.80742 26.1056 14.1398 26.1056 14.174C26.0029 15.9886 24.1883 17.1526 22.4765 16.5706L5.64907 12.3595L20.4907 11.2639L22.6305 5.61484H7.7204L5.5806 23.9658H0L2.1398 2.80742C2.1398 1.26676 3.37233 0 4.91298 0H25.4379Z" fill="#1051E4"/>
<path d="M33.0345 23.9658H27.4539L29.5937 0H35.1743L33.0345 23.9658Z" fill="#1051E4"/>
<path d="M58.6345 21.1926C59.0454 22.2539 58.4976 23.4522 57.4363 23.8631C57.1966 23.9315 34.9427 24 34.9427 24L37.0825 18.3852H54.1153L55.8614 12.8388L58.6345 21.1926ZM42.4919 5.61484V9.14123L55.8614 12.8388L39.6845 14.311C38.3835 14.5164 37.1167 13.6262 36.9113 12.291C36.9113 12.1883 36.9113 2.80742 36.9113 2.80742C36.9113 1.26676 38.1438 0.0342364 39.6845 0.0342364L60.3293 0.102711L58.1895 5.71755L42.4919 5.61484Z" fill="#1051E4"/>
<path d="M67.408 5.61484L65.2682 18.3852H83.6191V23.9658H62.4608C60.9201 23.9658 59.6876 22.7332 59.6876 21.1926L61.8274 2.80742C61.8274 1.26676 63.0599 0 64.6006 0H85.7589V5.61484H67.408Z" fill="#1051E4"/>
</g>
</g>
<defs>
<clipPath id="clip0_61_2338">
<rect width="85.7589" height="24" fill="white"/>
</clipPath>
<clipPath id="clip1_61_2338">
<rect width="85.7589" height="24" fill="white"/>
</clipPath>
</defs>
</svg>
