<svg width="644" height="180" viewBox="0 0 644 180" fill="none" xmlns="http://www.w3.org/2000/svg">
<path d="M190.979 0C202.545 0 212.056 9.50071 212.056 21.0556C212.056 21.0556 195.991 106.049 195.991 106.305C195.22 119.914 181.597 128.645 168.745 124.28L42.4111 92.6962L153.837 84.4793L169.902 42.1113H57.9619L41.8971 179.743H0L16.0648 21.0556C16.0648 9.50071 25.3182 0 36.8848 0H190.979Z" fill="white"/>
<path d="M248.011 179.743H206.114L222.179 0H264.076L248.011 179.743Z" fill="white"/>
<path d="M440.206 158.944C443.291 166.904 439.178 175.892 431.21 178.973C429.411 179.486 262.337 180 262.337 180L278.401 137.889H406.277L419.386 96.291L440.206 158.944ZM319.013 42.1113V68.5592L419.386 96.291L297.936 107.332C288.169 108.873 278.659 102.197 277.116 92.1826C277.116 91.4123 277.116 21.0556 277.116 21.0556C277.116 9.50071 286.37 0.256773 297.936 0.256773L452.93 0.770333L436.865 42.8816L319.013 42.1113Z" fill="white"/>
<path d="M506.074 42.1113L490.009 137.889H627.781V179.743H468.932C457.366 179.743 448.112 170.499 448.112 158.944L464.177 21.0556C464.177 9.50071 473.43 0 484.997 0H643.846V42.1113H506.074Z" fill="white"/>
</svg>
